<svg width="135" height="169" viewBox="0 0 135 169" fill="none" xmlns="http://www.w3.org/2000/svg">
<path d="M79.7427 140.667C74.3459 144.165 70.4149 146.547 67.9497 147.813C66.0509 148.812 64.4685 148.479 63.2025 146.813C61.9699 145.147 61.8866 143.998 62.9527 143.365C65.5845 141.766 68.8159 139.451 72.6469 136.419C76.3781 133.454 78.9432 131.222 80.3424 129.723C77.9105 126.758 76.0949 124.776 74.8956 123.777L78.8932 120.779L84.6398 119.13L83.5405 122.577C84.0069 122.311 85.506 121.728 88.0378 120.829L87.5881 125.326L86.6886 126.225L91.0361 132.522C89.3704 134.121 85.6059 136.836 79.7427 140.667Z" fill="black"/>
<path d="M133.611 45.2232C133.544 55.2173 133.628 62.563 133.861 67.2602C128.131 68.5261 121.168 70.5083 112.973 73.2067C103.212 76.4381 95.7333 79.4863 90.5364 82.3513L95.1836 89.0973L101.23 97.1925C95.4668 101.024 91.2859 104.038 88.6875 106.237L97.882 116.531L87.5881 125.326L88.0378 120.828C85.506 121.728 84.0069 122.311 83.5405 122.577L84.6399 119.129L78.8933 120.779L83.8403 116.581C80.7088 114.649 76.8445 111.917 72.2472 108.386L82.9409 96.1931L70.3983 81.6017L54.6576 63.9621C85.9058 43.8074 112.307 30.8484 133.861 25.0851C133.727 30.7818 133.644 37.4945 133.611 45.2232Z" fill="black"/>
<path d="M78.8933 120.629L84.5399 118.43L85.1396 118.48L85.2395 118.93L84.1901 121.728L87.738 120.129C88.3044 119.929 88.5875 120.079 88.5875 120.579C88.5542 121.911 88.321 123.494 87.8879 125.326L86.8885 126.075L87.3882 121.628C86.5554 121.828 85.3228 122.278 83.6904 122.977C83.0575 123.21 82.8243 123.027 82.9908 122.428L83.8403 119.879C81.1419 120.712 79.0931 121.378 77.694 121.878L78.8933 120.629Z" fill="black"/>
<path d="M80.0925 140.467L67.8498 147.413C70.5149 145.714 74.2793 142.899 79.1431 138.968L89.3871 130.173L91.136 132.522C88.6375 134.82 84.9563 137.469 80.0925 140.467Z" fill="black"/>
<path d="M112.573 73.4066C104.378 76.1716 96.766 79.0033 89.7368 81.9015C93.7011 79.2031 100.43 75.6386 109.925 71.2079C120.352 66.3441 128.231 63.3125 133.561 62.1133L133.761 67.2602C128.464 68.3929 121.401 70.4417 112.573 73.4066Z" fill="#060605"/>
<path d="M98.4817 93.7445L101.33 97.2425L87.788 105.987C93.0515 99.4911 96.6161 95.4102 98.4817 93.7445Z" fill="#060605"/>
<path d="M97.6821 116.631L93.3847 120.079L88.0878 124.426L88.3876 122.428C91.4858 117.764 93.6845 114.765 94.9837 113.433L97.6821 116.631Z" fill="#060605"/>
<path d="M88.0878 124.426L86.089 125.925L88.3876 122.428L88.0878 124.426Z" fill="black"/>
<path d="M134.71 24.5854C134.477 27.7835 134.394 34.7961 134.46 45.623L134.66 67.7599L134.31 68.2096C127.148 69.742 119.403 71.9241 111.074 74.7557C103.245 77.4542 96.7826 80.0859 91.6857 82.6511C93.8177 85.8825 97.3157 90.713 102.179 97.1425C102.379 97.3757 102.346 97.5756 102.08 97.7421C96.816 101.207 92.735 104.072 89.8368 106.337L98.7315 116.481C98.9314 116.681 98.9147 116.881 98.6815 117.081L92.0854 122.527C89.7868 124.426 88.321 125.709 87.688 126.375L91.8356 132.522L91.7856 133.071C90.4864 134.37 87.5881 136.469 83.0907 139.368C78.3269 142.399 73.4298 145.247 68.3994 147.912L67.5 148.012C67.4 147.813 67.5833 147.579 68.0496 147.313C80.0759 139.851 87.4049 134.903 90.0366 132.472L85.989 126.525C85.8558 126.325 85.8724 126.142 86.039 125.975L90.2365 121.928L96.4828 116.531C92.7517 112.034 89.8201 108.719 87.688 106.587C87.4548 106.354 87.4715 106.154 87.738 105.987C91.7689 102.756 95.8332 99.7909 99.9308 97.0925C95.7 91.4292 92.2353 86.5654 89.5369 82.5012C89.3371 82.2347 89.387 82.0348 89.6868 81.9015C94.9504 79.2364 101.48 76.5047 109.275 73.7064C117.903 70.5749 125.765 68.2429 132.861 66.7105C132.561 62.1799 132.428 55.234 132.462 45.8728C132.495 36.7116 132.645 30.1988 132.911 26.3344C121.951 29.3326 108.659 34.7794 93.0349 42.6747C78.4435 50.037 66.2174 57.2661 56.3566 64.3619C60.8872 69.2257 70.0651 79.7861 83.8903 96.0431C84.0568 96.243 84.0568 96.4263 83.8903 96.5928L78.4435 102.639L73.4465 108.336C79.3763 112.8 83.0574 115.482 84.4899 116.381C84.7897 116.581 84.8064 116.814 84.5399 117.081L76.3447 123.877C77.9105 125.442 79.5428 127.375 81.2418 129.673C81.4084 129.873 81.4084 130.056 81.2418 130.223C80.0426 131.655 77.4774 133.837 73.5464 136.769C69.682 139.634 66.3007 141.883 63.4024 143.515L62.6029 143.615C62.4696 143.448 62.5862 143.232 62.9527 142.965L72.2472 136.019C75.845 133.188 78.2103 131.122 79.343 129.823C77.4441 127.358 75.7451 125.476 74.246 124.176C74.0128 123.943 74.0294 123.727 74.296 123.527L82.5411 116.781C79.3097 114.649 75.5785 112.017 71.3477 108.886C71.1145 108.686 71.0978 108.486 71.2977 108.286L81.7915 96.243L67.6499 79.8028L53.858 64.4119C53.6582 64.1787 53.6748 63.9621 53.908 63.7622C63.9021 56.3666 76.8444 48.7211 92.735 40.8258C109.059 32.6973 122.884 27.1339 134.211 24.1357C134.61 24.0358 134.777 24.1857 134.71 24.5854Z" fill="#0D131A"/>
<path d="M13.432 12.7924C11.3999 13.9251 9.61757 16.5402 8.08515 20.6378C6.78592 24.1024 6.03636 27.4671 5.83648 30.7318C4.30405 26.1345 3.12142 20.1547 2.28858 12.7924C1.42242 5.26356 1.53902 1.34921 2.63837 1.04938C3.70441 0.749562 5.33677 1.88222 7.53547 4.44737C9.30109 6.51282 11.2666 9.29451 13.432 12.7924Z" fill="#0D131A"/>
<path d="M92.1354 8.09521C93.2347 9.86084 93.6845 13.1256 93.4846 17.8894C93.2847 22.0869 92.7184 25.7348 91.7856 28.8329C89.3204 31.4647 86.3888 34.0632 82.9908 36.6283C79.1597 39.5599 75.895 41.5088 73.1966 42.4749C76.2948 44.9734 78.7766 47.855 80.6422 51.1198C81.8748 53.2518 82.9575 55.867 83.8903 58.9651C85.4893 63.9955 85.5893 69.359 84.1901 75.0556C82.9575 80.0526 81.0086 83.9004 78.3436 86.5988C72.2138 92.3287 64.2852 95.8433 54.5576 97.1425C46.2292 98.2752 38.2173 97.6922 30.5219 95.3936C27.2238 94.2942 24.1923 92.3121 21.4272 89.4471C18.3291 86.2823 16.1637 82.5845 14.9311 78.3537C13.7318 74.2894 13.4819 70.1085 14.1815 65.8111C14.7145 62.4131 15.7972 59.165 17.4296 56.0668C15.3642 53.7349 13.0489 49.6873 10.4837 43.924C8.35164 39.0269 6.83587 34.896 5.9364 31.5313C6.10297 26.6342 7.06906 22.3701 8.83469 18.7389C10.1672 16.0072 11.633 14.075 13.2321 12.9423C15.8639 16.7068 18.479 21.9204 21.0774 28.5831C23.8092 35.5456 25.3582 41.209 25.7247 45.573C30.4885 41.209 36.5016 38.244 43.764 36.6783C50.3934 35.2458 56.2067 35.2791 61.2037 36.7782C64.6017 31.3814 69.8153 25.5349 76.8444 19.2386C83.2073 13.5753 88.3043 9.86084 92.1354 8.09521Z" fill="black"/>
<path d="M34.8693 92.895C41.2988 89.7969 46.9954 87.6981 51.9592 86.5988C55.9568 85.7326 61.2703 85.3162 67.8997 85.3495C74.4292 85.3495 77.9105 85.7659 78.3436 86.5988C80.2091 90.1633 82.0747 95.1937 83.9403 101.69C85.9391 108.752 87.4049 115.732 88.3376 122.627C90.7029 140.484 88.7707 151.744 82.5411 156.407C77.9771 159.872 69.9985 159.489 58.6052 155.258C53.6082 153.459 49.927 152.277 47.5618 151.71C44.5302 151.011 41.4154 150.727 38.2173 150.861C34.9859 150.994 32.1209 150.628 29.6224 149.761C27.3571 148.995 25.7247 147.979 24.7253 146.713C22.46 143.782 21.6105 138.835 22.1768 131.872C22.6099 126.642 23.6759 121.328 25.3749 115.931L28.2232 107.836L31.0216 100.291C31.388 99.3912 32.1376 97.8921 33.2702 95.7933L34.8693 92.895Z" fill="black"/>
<path d="M34.8693 92.895C35.9353 92.5286 36.7682 93.528 37.3678 95.8933C38.0008 98.3918 37.8842 100.99 37.018 103.689C36.0853 106.554 34.303 109.352 31.6712 112.084C29.0727 114.815 26.974 116.098 25.3749 115.931C23.6093 115.965 21.877 115.698 20.178 115.132C18.6789 114.599 17.896 114.099 17.8294 113.633C17.8294 112.933 18.1958 112.317 18.9287 111.784L17.1298 108.486C16.5302 107.287 16.2636 106.587 16.3303 106.387C16.4968 106.121 17.1465 106.037 18.2791 106.137C18.2458 104.172 18.9787 103.589 20.4778 104.388C20.5444 102.822 21.1941 102.606 22.4267 103.739C23.4261 102.14 24.7586 100.524 26.4243 98.8915C27.8568 97.459 29.2226 96.293 30.5219 95.3935C31.5879 94.3608 33.0371 93.528 34.8693 92.895Z" fill="black"/>
<path d="M92.1354 8.09523C95.6 6.29629 99.1479 4.81383 102.779 3.64786C107.276 2.21537 109.892 2.0488 110.624 3.14815C111.557 4.54732 109.458 8.57827 104.328 15.241C99.5977 21.3374 95.3002 26.0346 91.4358 29.3327C92.6351 25.6348 93.318 21.9037 93.4846 18.1393C93.6512 14.175 93.2014 10.8269 92.1354 8.09523Z" fill="#0D131A"/>
<path d="M16.8799 146.413C18.6456 144.948 20.5444 143.898 22.5766 143.265C24.4421 147.696 28.4564 150.211 34.6194 150.811C31.6878 152.277 28.2066 153.326 24.1756 153.959C20.1114 154.559 17.7294 154.392 17.0298 153.459C15.664 153.792 14.8645 153.609 14.6313 152.91C14.4314 152.343 14.5646 151.71 15.031 151.011C14.0649 149.745 14.6812 148.212 16.8799 146.413Z" fill="black"/>
<path d="M73.6963 158.706C76.3947 158.806 78.8599 158.34 81.0919 157.307C83.1907 156.341 84.6732 155.092 85.5393 153.559C87.2716 156.424 88.3377 159.139 88.7374 161.704C89.1372 164.336 88.7374 166.002 87.5381 166.701C87.5048 167.667 87.0551 168.151 86.1889 168.151C85.4227 168.117 84.7898 167.801 84.29 167.201C83.8903 168.3 82.2912 167.817 79.4929 165.752C76.6279 163.62 74.6957 161.271 73.6963 158.706Z" fill="black"/>
<path d="M41.8651 78.1538L45.2631 75.9551C45.9294 75.4554 46.9288 75.0056 48.2614 74.6059L51.0597 74.1062L55.3072 73.6564C55.2072 74.6225 54.8408 75.5886 54.2078 76.5547L48.7111 76.8545C46.8122 77.5541 45.6296 78.6035 45.1632 80.0027L41.8651 78.1538Z" fill="black"/>
<path d="M45.1132 79.9527C45.7795 78.6535 46.9954 77.6374 48.7611 76.9045C50.6932 76.105 52.5422 76.005 54.3078 76.6047C51.5761 80.2025 48.5112 81.3185 45.1132 79.9527Z" fill="black"/>
<path d="M17.9293 112.933C18.4623 113.333 19.6616 113.549 21.5272 113.583L26.1245 113.083L25.4249 115.831C23.5926 115.898 21.7771 115.615 19.9781 114.982C18.0792 114.316 17.3963 113.633 17.9293 112.933Z" fill="#060605"/>
<path d="M48.1614 98.2419C48.1281 97.7755 49.2774 97.3591 51.6094 96.9926L55.2073 97.1925C55.2406 97.5923 54.7909 98.0087 53.8581 98.4418L51.6594 99.0914L49.5106 98.9914C48.6112 98.8249 48.1614 98.575 48.1614 98.2419Z" fill="#060605"/>
<path d="M22.1768 134.77C23.3761 143.665 28.2732 147.763 36.8681 147.063C41.1989 146.697 45.3798 146.996 49.4107 147.962C52.8753 148.795 57.0562 150.344 61.9533 152.61C67.4833 155.208 72.9468 155.508 78.3436 153.509C85.2395 150.977 89.0039 144.881 89.6369 135.22C89.5703 142.782 88.5709 148.329 86.6387 151.86C83.5405 157.623 77.7939 159.739 69.3989 158.206C66.6005 157.707 61.337 156.174 53.6082 153.609C47.2786 151.51 43.1311 150.578 41.1656 150.811C34.9692 151.544 30.1721 150.661 26.7741 148.162C23.0097 145.397 21.4772 140.933 22.1768 134.77Z" fill="#060605"/>
<path d="M18.5789 145.364C18.7455 145.131 19.4451 144.781 20.6777 144.315L22.9263 143.515C23.5926 145.447 25.2416 147.163 27.8734 148.662C30.272 150.028 32.504 150.711 34.5695 150.711C32.4707 151.843 30.1221 152.693 27.5236 153.259C24.4255 148.629 21.4439 145.997 18.5789 145.364Z" fill="#060605"/>
<path d="M77.4941 164.053L75.4453 161.554C74.779 160.555 74.3126 159.606 74.0461 158.706C78.9099 159.206 82.7077 157.507 85.4394 153.609C86.5387 155.308 87.205 156.541 87.4382 157.307C85.2062 157.44 83.1574 158.123 81.2918 159.356C79.3929 160.588 78.127 162.154 77.4941 164.053Z" fill="#060605"/>
<path d="M26.0745 63.0127C27.6402 62.5796 29.1393 62.8461 30.5718 63.8122C31.971 64.7783 32.9204 66.1775 33.4201 68.0098C33.9532 69.7754 33.8033 71.3744 32.9704 72.8069C32.2042 74.1395 31.0216 75.0556 29.4225 75.5553C27.8235 76.0217 26.2411 75.8551 24.6753 75.0556C23.1429 74.2561 22.1601 73.0734 21.7271 71.5077C21.194 69.6754 21.3273 67.9431 22.1268 66.3108C22.9264 64.6118 24.2422 63.5124 26.0745 63.0127Z" fill="#0D131A"/>
<path d="M25.7747 63.7123L28.0233 63.8123C28.7229 64.1454 29.206 64.6618 29.4725 65.3613C29.739 66.1275 29.739 66.8604 29.4725 67.56C29.1727 68.2929 28.623 68.8093 27.8235 69.1091L25.5748 69.0092C24.8752 68.676 24.4088 68.1264 24.1756 67.3602C23.9424 66.5606 23.9924 65.8111 24.3255 65.1115C24.6254 64.4119 25.1084 63.9455 25.7747 63.7123Z" fill="black"/>
<path d="M61.8533 51.7194C63.7189 51.1198 65.5345 51.3196 67.3001 52.3191C69.1323 53.3185 70.2483 54.8342 70.6481 56.8664C71.0146 58.5654 70.7647 60.1977 69.8986 61.7635C69.0657 63.3292 67.8664 64.3786 66.3007 64.9116C64.4684 65.5446 62.7195 65.428 61.0538 64.5618C59.4547 63.729 58.372 62.4797 57.8057 60.814C57.1394 58.7486 57.2394 56.8331 58.1055 55.0674C58.9051 53.3684 60.1543 52.2524 61.8533 51.7194Z" fill="#0D131A"/>
<path d="M61.5035 52.469C62.2364 52.1358 62.986 52.1358 63.7522 52.469C64.5184 52.7688 65.0514 53.3018 65.3513 54.068C65.6178 54.7676 65.6178 55.5005 65.3513 56.2667C65.0847 57.0996 64.5684 57.6492 63.8022 57.9157C63.0027 58.2156 62.2531 58.2156 61.5535 57.9157C60.8206 57.6159 60.3042 57.0996 60.0044 56.3667C59.7046 55.6338 59.6879 54.8842 59.9545 54.118C60.221 53.3518 60.7373 52.8021 61.5035 52.469Z" fill="black"/>
<path d="M44.8134 70.8581C44.7801 70.7248 45.1299 70.5582 45.8628 70.3584L46.9621 70.1585L46.6623 70.8081L46.0127 71.2578L45.3131 71.2079L44.8134 70.8581Z" fill="#0D131A"/>
<path d="M78.9932 64.1121C80.2591 64.6118 81.0919 65.9277 81.4917 68.0597C81.9248 70.1918 81.7582 72.2739 80.992 74.306C80.1591 76.6047 78.8599 78.3203 77.0943 79.453C75.3287 80.5857 73.6963 80.7855 72.1972 80.0526C70.6981 79.353 69.7153 78.0038 69.2489 76.005C68.7492 73.9063 68.9991 71.7742 69.9985 69.6088C71.0645 67.3102 72.4804 65.6445 74.246 64.6118C75.9117 63.679 77.4941 63.5124 78.9932 64.1121Z" fill="black"/>
<path d="M26.0245 83.1008C27.4903 84.9664 28.4731 86.8153 28.9728 88.6475C29.4725 90.5797 29.2559 91.879 28.3232 92.5452C27.4237 93.1782 26.1411 92.995 24.4754 91.9956C23.043 91.1627 21.5105 89.8468 19.8782 88.0479C18.4457 86.4155 17.4463 84.7332 16.8799 83.0009C16.3136 81.2353 16.3969 79.986 17.1298 79.2531C18.0293 78.4203 19.3951 78.4036 21.2274 79.2031C22.993 79.9693 24.592 81.2686 26.0245 83.1008Z" fill="black"/>
<path d="M6.0863 2.19871C10.0839 5.99646 13.965 11.5765 17.7294 18.9388C22.1934 27.7003 25.0251 36.4451 26.2244 45.1733L25.225 46.0727C23.8591 37.3113 20.8276 28.3999 16.1304 19.3386C12.5658 12.4093 8.98458 6.96256 5.38671 2.99824C4.35399 1.9322 3.60443 1.41584 3.13804 1.44915C2.5384 1.51578 2.22192 2.39859 2.18861 4.09759C2.02204 9.89416 3.20467 17.6895 5.73651 27.4837C8.80136 39.3434 12.7657 48.6879 17.6295 55.5172L17.1298 56.7664C11.8329 49.9371 7.58541 40.626 4.38731 28.833C1.58896 18.4724 0.472954 10.1773 1.03929 3.94768C1.20585 1.74898 1.72222 0.533029 2.58837 0.299834C3.3879 0.099952 4.55387 0.732911 6.0863 2.19871Z" fill="#0D131A"/>
<path d="M6.53607 32.4808L5.48669 29.9323C5.78652 25.9014 6.58604 22.3535 7.88527 19.2886C9.15119 16.2571 10.8169 13.9418 12.8823 12.3427L13.6319 13.3921C11.4665 15.0911 9.76749 17.6729 8.53489 21.1375C7.3356 24.4689 6.66933 28.25 6.53607 32.4808Z" fill="#0D131A"/>
<path d="M94.4341 25.435C101.297 18.2725 106.244 12.0429 109.275 6.74601C110.241 5.08033 110.541 3.99764 110.175 3.49793L106.427 3.39799C100.597 4.53065 94.0509 7.49557 86.7886 12.2927C77.1276 18.6556 68.7826 26.8674 61.7534 36.9282L60.6041 36.5784C67.9997 25.6848 76.4447 17.1232 85.9391 10.8936C93.0349 6.22965 99.7642 3.36468 106.127 2.29864C108.992 1.79894 110.708 1.98216 111.274 2.84832C111.774 3.64784 111.457 5.1303 110.325 7.29569C107.16 13.2255 102.096 19.755 95.1336 26.8841C87.2716 34.9127 80.1425 40.2595 73.7463 42.9246L72.6969 42.1751C78.9932 39.51 86.2389 33.9299 94.4341 25.435Z" fill="#0D131A"/>
<path d="M92.4852 28.2333L90.6363 29.7824C92.1354 25.0852 92.9016 20.5545 92.9349 16.1905C92.9349 12.5593 92.5352 10.0607 91.7356 8.69489L92.735 7.9953C93.6012 9.49441 94.1009 11.9097 94.2342 15.241C94.3674 19.3719 93.7844 23.7027 92.4852 28.2333Z" fill="#0D131A"/>
<path d="M80.4423 92.5952C80.2091 91.829 80.2091 91.3959 80.4423 91.296C80.7088 91.196 80.9753 91.5292 81.2418 92.2954C87.0717 108.452 89.9534 122.911 89.8867 135.67C89.7868 148.562 86.6553 156.208 80.4923 158.606C77.1276 159.905 72.3138 159.855 66.0508 158.456C62.2531 157.623 57.2727 156.074 51.1097 153.809C48.5445 152.876 46.579 152.26 45.2132 151.96L39.0168 151.51L31.1715 151.011C28.1732 150.344 25.708 148.929 23.7758 146.763C21.3106 144.065 20.6943 138.252 21.9269 129.323C23.1595 120.196 25.9745 110.734 30.3719 100.94C30.6718 100.274 30.9549 99.9908 31.2214 100.091C31.4546 100.191 31.4213 100.574 31.1215 101.24C27.0906 111.101 24.4921 120.379 23.3261 129.074C22.2268 137.602 22.8098 143.132 25.0751 145.664C26.9073 147.729 29.1227 149.062 31.7211 149.661L39.0168 150.211L45.8128 150.661C47.1787 150.927 49.0942 151.544 51.5594 152.51C64.9182 157.573 74.3459 159.056 79.8427 156.957C85.4727 154.825 88.2377 147.446 88.1378 134.82C88.0711 122.827 85.506 108.752 80.4423 92.5952Z" fill="#0D131A"/>
<path d="M29.7223 95.1437L31.1715 95.5934C27.7069 97.992 24.6587 101.124 22.0269 104.988C21.6604 105.554 21.3773 105.787 21.1774 105.687C20.9775 105.554 21.0608 105.204 21.4272 104.638C23.8258 100.541 26.5908 97.3757 29.7223 95.1437Z" fill="#0D131A"/>
<path d="M37.9175 78.7034C37.6177 78.5036 37.5344 78.3203 37.6676 78.1538L38.3672 78.1038C39.5998 78.5702 41.4487 77.9206 43.9139 76.1549C45.3464 75.1222 46.5957 74.4393 47.6617 74.1062C48.7278 73.7397 50.2435 73.5232 52.209 73.4565L55.5571 72.9568C56.4565 72.6237 57.0229 72.0574 57.2561 71.2578C57.4226 70.8581 57.6058 70.6915 57.8057 70.7581C58.0056 70.7915 58.0722 71.0246 58.0056 71.4577C57.6058 73.4899 55.6737 74.5725 52.209 74.7058L48.0115 75.3054C47.0121 75.6386 45.8628 76.2715 44.5636 77.2043C41.6986 79.2698 39.4832 79.7695 37.9175 78.7034Z" fill="#0D131A"/>
<path d="M42.4148 77.754C45.0799 79.8194 47.5451 80.4524 49.8105 79.6529C51.0098 79.2198 52.0591 78.4536 52.9586 77.3542C53.8581 76.2549 54.4744 75.0223 54.8075 73.6564L56.1567 73.4066C55.9235 74.9723 55.2239 76.4214 54.058 77.754C52.9586 79.0199 51.6594 79.936 50.1603 80.5024L45.8628 80.7522C44.2971 80.4191 42.7813 79.6695 41.3155 78.5035L42.4148 77.754Z" fill="#0D131A"/>
<path d="M15.031 147.563C16.5635 145.564 19.0453 143.932 22.4766 142.666L22.9264 143.865C19.9948 145.031 17.8127 146.347 16.3802 147.813C15.1476 149.112 14.7812 150.078 15.2809 150.711L14.5313 151.76C13.4653 150.794 13.6319 149.395 15.031 147.563Z" fill="#0D131A"/>
<path d="M18.9787 147.413C19.4451 147.18 19.7283 147.18 19.8282 147.413C19.9615 147.613 19.7949 147.846 19.3285 148.112C18.1958 148.779 17.2131 149.578 16.3802 150.511C15.4808 151.477 15.131 152.21 15.3309 152.71L17.0299 152.86L17.4796 153.959L15.4308 154.159C14.6313 154.059 14.1482 153.776 13.9817 153.309C13.6485 152.41 14.0983 151.31 15.3309 150.011C16.4302 148.845 17.6462 147.979 18.9787 147.413Z" fill="#0D131A"/>
<path d="M33.8699 150.661L35.9187 150.961C32.2209 152.793 28.0733 154.026 23.476 154.658C18.9454 155.258 16.4968 154.942 16.1304 153.709C15.9305 153.076 16.3469 152.277 17.3796 151.31C18.479 150.244 19.7616 149.528 21.2274 149.162C21.6938 149.062 21.9603 149.112 22.0269 149.312C22.0935 149.545 21.9103 149.745 21.4772 149.911C20.3779 150.344 19.4284 150.894 18.6289 151.56C17.8627 152.227 17.5295 152.76 17.6295 153.159C17.7627 153.726 19.4284 153.859 22.6265 153.559C26.3577 153.193 30.1054 152.227 33.8699 150.661Z" fill="#0D131A"/>
<path d="M72.9967 158.656L74.4459 158.556C75.3453 160.988 77.011 163.153 79.4429 165.052C81.6083 166.751 83.0075 167.418 83.6404 167.051C83.9403 166.851 83.8903 166.202 83.4905 165.102C83.1241 164.003 82.5411 162.804 81.7416 161.504C81.5084 161.171 81.4917 160.938 81.6916 160.805C81.8582 160.705 82.0747 160.805 82.3412 161.105C83.3739 162.337 84.1068 163.736 84.5399 165.302C84.973 166.935 84.873 167.917 84.2401 168.25C83.274 168.75 81.4917 168.034 78.8932 166.102C75.995 163.936 74.0295 161.454 72.9967 158.656Z" fill="#0D131A"/>
<path d="M85.4394 160.455C85.2395 159.989 85.2562 159.706 85.4893 159.606C85.6892 159.506 85.9058 159.672 86.139 160.105C87.3049 162.304 87.9212 164.253 87.9879 165.952C88.0212 167.418 87.6714 168.3 86.9385 168.6L85.5893 168.65C84.9896 168.517 84.4566 168.2 83.9902 167.701L84.4899 166.601C85.3228 167.434 85.9891 167.734 86.4888 167.501C86.8885 167.301 87.0218 166.601 86.8885 165.402C86.722 164.07 86.2389 162.421 85.4394 160.455Z" fill="#0D131A"/>
<path d="M85.0396 154.059L85.9391 152.959C87.7713 155.991 88.8873 158.956 89.2871 161.854C89.6869 165.019 89.0372 166.968 87.3382 167.701L87.4882 166.302C88.321 165.502 88.4876 163.87 87.9879 161.404C87.4882 159.006 86.5054 156.557 85.0396 154.059Z" fill="#0D131A"/>
<path d="M54.4077 76.055L53.958 76.9545C52.4922 76.4881 50.8765 76.588 49.1109 77.2543C47.3452 77.9206 46.1793 78.87 45.6129 80.1026L44.6135 79.8028C45.3131 78.3037 46.629 77.171 48.5612 76.4048C50.4934 75.6386 52.4422 75.522 54.4077 76.055Z" fill="#0D131A"/>
<path d="M18.529 53.3684C18.8954 52.8354 19.1952 52.6355 19.4284 52.7688C19.6616 52.9353 19.6116 53.2851 19.2785 53.8181C17.0132 57.6825 15.5807 61.6802 14.9811 65.811C14.3814 69.9753 14.6479 74.1061 15.7806 78.2037C17.0132 82.6677 19.2285 86.4322 22.4266 89.497C25.5914 92.4953 29.5058 94.644 34.1697 95.9432C35.0692 96.2097 35.4856 96.4596 35.419 96.6928L33.9698 96.8427C29.1727 95.9099 24.9585 93.7945 21.3273 90.4965C17.6961 87.1984 15.2476 83.2507 13.9816 78.6534C12.8157 74.4559 12.6324 70.1252 13.432 65.6611C14.2315 61.1638 15.9305 57.0662 18.529 53.3684Z" fill="#0D131A"/>
<path d="M51.2596 35.2292C55.7569 35.0959 59.7879 35.6956 63.3524 37.0281C63.9521 37.2613 64.2186 37.4945 64.152 37.7277L63.1026 37.8276C55.3738 35.6956 47.1787 36.1286 38.5171 39.1269C33.0204 40.9924 28.3898 43.6908 24.6254 47.2221C24.159 47.6552 23.8425 47.7884 23.6759 47.6218C23.476 47.422 23.5926 47.0888 24.0257 46.6224C27.557 42.6248 32.2209 39.6266 38.0174 37.6278C42.4481 36.1286 46.8622 35.3291 51.2596 35.2292Z" fill="#0D131A"/>
<path d="M84.0902 56.5165C85.7225 61.1471 86.1889 66.2108 85.4894 71.7075C84.6898 77.9372 82.4911 82.9342 78.8933 86.6987C78.4602 87.1651 78.1604 87.315 77.9938 87.1484C77.7939 86.9818 77.8772 86.6487 78.2436 86.149C81.3751 82.0514 83.274 77.121 83.9403 71.3578C84.5399 66.1608 84.0569 61.3803 82.4911 57.0162C80.1925 50.4535 76.3947 45.3065 71.0979 41.5754C70.5315 41.1756 70.3317 40.8758 70.4982 40.6759C70.6315 40.476 70.9979 40.5427 71.5976 40.8758C74.3959 42.5082 76.8944 44.6902 79.0931 47.4219C81.2585 50.1536 82.9242 53.1852 84.0902 56.5165Z" fill="#0D131A"/>
<path d="M22.5766 103.289L21.9769 104.038C21.5772 103.739 21.294 103.622 21.1274 103.689L20.9276 104.288L20.6277 104.938L19.8782 104.738L19.1286 104.588C18.8954 104.688 18.7622 105.021 18.7289 105.588L18.529 106.537H17.6295L16.8799 106.687C16.7467 106.887 17.1298 107.77 18.0293 109.335L19.4284 111.784L18.8788 112.483C18.479 112.883 18.2958 113.216 18.3291 113.483C18.3957 113.883 19.3452 114.299 21.1774 114.732L25.4749 115.182L25.225 116.381C23.7925 116.514 22.1102 116.248 20.178 115.582C18.2458 114.949 17.2131 114.316 17.0798 113.683C16.9799 113.083 17.3797 112.433 18.2791 111.734C16.3802 108.569 15.5474 106.704 15.7806 106.137C15.8805 105.904 16.1804 105.754 16.6801 105.687L17.9293 105.787C17.8627 105.354 17.896 104.921 18.0293 104.488C18.1292 104.055 18.2958 103.772 18.529 103.639L19.2785 103.539C19.6117 103.605 19.8948 103.722 20.128 103.889C20.1947 103.122 20.4278 102.689 20.8276 102.589L21.6771 102.739L22.5766 103.289Z" fill="#0D131A"/>
<path d="M94.9338 98.7915C91.4358 103.222 87.155 106.32 82.0913 108.086C78.5934 109.285 74.6791 107.836 70.3483 103.739C65.9842 99.6077 64.8516 96.0765 66.9503 93.1449C69.0824 90.18 71.9807 87.2484 75.6452 84.3501C79.9093 80.9521 83.9236 78.7367 87.688 77.704C89.0539 75.5386 89.9367 74.406 90.3365 74.306L91.7856 74.6059C92.4852 74.939 93.1015 75.522 93.6345 76.3548C95.4001 76.588 96.8826 77.4042 98.0819 78.8034C99.3478 80.2359 100.031 82.0015 100.131 84.1002C100.331 89.2305 98.5983 94.1276 94.9338 98.7915Z" fill="black"/>
<path d="M99.581 81.5018C101.447 86.5321 100.147 92.0455 95.6833 98.042C91.4858 103.739 86.9385 106.92 82.0414 107.586C86.572 105.488 90.7029 101.64 94.4341 96.0432C98.1319 90.4798 99.8475 85.6327 99.581 81.5018Z" fill="#060605"/>
<path d="M92.1354 74.306C92.8683 74.6392 93.4846 75.2055 93.9843 76.005C98.1818 76.5047 100.48 79.4197 100.88 84.7499C101.213 89.2139 99.7309 93.7279 96.4329 98.2918C92.835 103.189 88.1877 106.537 82.4911 108.336L81.4417 108.236C81.3418 107.969 81.5916 107.72 82.1913 107.486C87.3549 105.521 91.6357 102.256 95.0337 97.6922C98.3317 93.2615 99.8475 88.9973 99.581 84.8998C99.2479 80.4357 97.3823 77.804 93.9843 77.0044C93.5512 76.9711 93.2681 76.8046 93.1348 76.5047C92.9016 76.0717 92.4852 75.7219 91.8856 75.4554L90.3365 75.2055C90.0366 75.3054 89.6369 75.7718 89.1372 76.6047C88.6375 77.5041 88.2377 78.0039 87.9379 78.1038C84.0402 79.6362 80.6089 81.4518 77.644 83.5506C74.1794 86.0158 70.848 89.1639 67.6499 92.995C67.2501 93.4614 66.9337 93.6113 66.7005 93.4447C66.5006 93.2781 66.5839 92.9284 66.9503 92.3953C70.4482 87.8647 74.1294 84.3001 77.9938 81.7017C80.7588 79.8361 83.8403 78.3536 87.2383 77.2543L88.4876 75.6552C89.0872 74.6891 89.6369 74.1561 90.1366 74.0562C90.7695 73.8896 91.4358 73.9729 92.1354 74.306Z" fill="#0D131A"/>
<path d="M90.9861 77.2543L91.8856 77.1044C92.0521 77.2043 91.9688 77.4375 91.6357 77.804C91.2693 78.237 91.086 78.5202 91.086 78.6534C91.086 78.8866 91.186 79.1532 91.3859 79.453L91.6857 80.0526L91.2859 80.6023C91.0194 80.9021 90.8861 81.2353 90.8861 81.6017C90.8861 82.0348 91.0194 82.4512 91.2859 82.851L91.6857 83.6005L91.4358 84.2002C91.2359 84.5333 91.1527 84.8331 91.186 85.0996C91.2193 85.3661 91.4192 85.6993 91.7856 86.099L92.3853 86.8486L92.1354 87.5982C92.0022 87.9979 91.9688 88.3644 92.0355 88.6975L92.835 89.3971L94.1842 89.8468C94.6173 89.8801 94.8338 90.0134 94.8338 90.2466L94.2841 90.6464L92.4352 90.3465C91.7023 90.0467 91.2526 89.6469 91.086 89.1472C90.9861 88.8807 90.9694 88.5309 91.0361 88.0979C91.1027 87.6315 91.2526 87.265 91.4858 86.9985L90.6363 86.2989C90.3698 85.9658 90.2199 85.6327 90.1866 85.2995C90.0533 84.6999 90.2865 84.1335 90.8861 83.6005C90.2532 83.0675 89.8867 82.4512 89.7868 81.7516C89.7202 81.0187 90.0533 80.4024 90.7862 79.9027C90.3531 79.5696 90.1366 79.1198 90.1366 78.5535C90.1033 78.3203 90.1866 78.0705 90.3864 77.804L90.9861 77.2543Z" fill="#0D131A"/>
<path d="M18.529 53.3684C18.8954 52.8354 19.1952 52.6355 19.4284 52.7688C19.6616 52.9353 19.6116 53.2851 19.2785 53.8181C17.0132 57.6825 15.5807 61.6802 14.9811 65.811C14.3814 69.9753 14.6479 74.1061 15.7806 78.2037C17.0132 82.6677 19.2285 86.4322 22.4266 89.497C25.5914 92.4953 29.5058 94.644 34.1697 95.9432C35.0692 96.2097 35.4856 96.4596 35.419 96.6928L33.9698 96.8427C29.1727 95.9099 24.9585 93.7945 21.3273 90.4965C17.6961 87.1984 15.2476 83.2507 13.9816 78.6534C12.8157 74.4559 12.6324 70.1252 13.432 65.6611C14.2315 61.1638 15.9305 57.0662 18.529 53.3684Z" fill="#0D131A"/>
</svg>
