<svg width="103" height="42" viewBox="0 0 103 42" fill="none" xmlns="http://www.w3.org/2000/svg">
<g filter="url(#filter0_i_5_99)">
<path fill-rule="evenodd" clip-rule="evenodd" d="M54.4395 35.2135V25.1345L43.5279 20.5958L49.2549 14.6235L41.7491 7.47426L39.6205 11.8502L39.7021 7.64329L30.1902 10.9049L30.4351 16.3889L32.0506 15.9381L33.7302 35.2886L40.437 34.2306L40.4253 27.77L54.4395 35.2135Z" fill="#D02B45"/>
<path fill-rule="evenodd" clip-rule="evenodd" d="M31.9805 12.3127L37.7599 10.4659L38.1157 16.8576L42.373 10.4409L46.5312 14.6916L40.7167 21.2711L52.6839 26.3607V32.2141L38.7805 24.7456L38.8039 32.5709L35.2055 33.0968L33.6717 13.5209L32.0505 13.9716L31.9805 12.3127Z" fill="white"/>
<path fill-rule="evenodd" clip-rule="evenodd" d="M75.8013 8.4379H69.5028L69.322 9.54597H62.6969L59.6001 29.873L67.1583 31.1501L67.5724 28.2329L69.5494 32.1455L70.7508 29.6477L71.194 33.7482L79.7612 35.3696L75.8013 8.4379Z" fill="#D02B45"/>
<path fill-rule="evenodd" clip-rule="evenodd" d="M71.1598 10.3169H74.3673L77.6157 32.9602L72.8802 32.184L71.6205 23.2255L69.8417 28.1649L67.1707 21.9922H67.1415L66.086 29.1477L61.6478 28.3151L64.2897 11.3623H68.7803L69.9001 17.9356L71.1598 10.3169Z" fill="white"/>
<path fill-rule="evenodd" clip-rule="evenodd" d="M83.8209 10.2911L93.2978 12.5261L94.0035 16.2822L94.7675 12.8954L102.833 14.9926L95.0882 40.0399L89.1455 38.0304L89.0988 35.52L83.3951 34.6624L85.3197 16.2822L83.8909 15.9379L83.8209 10.2911Z" fill="#D02B45"/>
<path fill-rule="evenodd" clip-rule="evenodd" d="M85.5063 12.6383L91.6823 13.9718L93.7643 24.5516L95.893 15.0673L100.594 16.1879L93.9743 37.7107L90.6851 36.6527L90.3993 23.6439L88.743 33.6791L85.1564 33.0718L86.766 14.8482L85.413 14.4601L85.5063 12.6383Z" fill="white"/>
<path fill-rule="evenodd" clip-rule="evenodd" d="M82.9111 31.7697C80.8641 32.596 78.6888 32.5021 76.9392 31.5005C75.3179 30.5802 74.1865 28.9839 73.7491 27.0119C72.8743 23.0804 75.2946 18.5918 79.1437 17.008C81.214 16.1691 83.4069 16.2693 85.1681 17.2772C86.7719 18.1912 87.8916 19.75 88.3174 21.6656C89.2097 25.6534 86.7894 30.1858 82.9111 31.7697Z" fill="#D02B45"/>
<path fill-rule="evenodd" clip-rule="evenodd" d="M86.8171 22.0295C86.1173 18.8743 82.9797 17.2905 79.7604 18.5926C76.6403 19.876 74.5933 23.5006 75.299 26.6558C76.0221 29.9112 79.1306 31.4887 82.3498 30.1866C85.4932 28.9095 87.5403 25.2598 86.8171 22.0295Z" fill="white"/>
<path fill-rule="evenodd" clip-rule="evenodd" d="M84.4792 22.5857C84.415 24.326 83.0037 25.6407 81.2774 25.5656C79.5803 25.4904 78.2739 24.0631 78.3381 22.3227C78.4022 20.6888 79.8077 19.3742 81.534 19.4493C83.2369 19.5244 84.5433 20.9517 84.4792 22.5857Z" fill="#D02B45"/>
<path fill-rule="evenodd" clip-rule="evenodd" d="M82.2858 19.5242C81.2536 19.4804 80.3904 20.2442 80.3496 21.227C80.3146 22.2099 81.1194 23.0488 82.1517 23.0926C83.1839 23.1364 84.0471 22.3727 84.0879 21.3898C84.1229 20.4069 83.3181 19.5681 82.2858 19.5242Z" fill="white"/>
<path fill-rule="evenodd" clip-rule="evenodd" d="M30.662 33.9616C28.5684 34.9131 26.2997 34.9131 24.4393 33.9553C22.7189 33.0663 21.4767 31.4637 20.946 29.4291C19.8846 25.3787 22.2232 20.6022 26.1656 18.7804C28.2826 17.8226 30.5687 17.8226 32.4408 18.7929C34.1437 19.6694 35.3684 21.2407 35.8875 23.2127C36.9722 27.3194 34.6278 32.1461 30.662 33.9616Z" fill="#D02B45"/>
<path fill-rule="evenodd" clip-rule="evenodd" d="M34.3886 23.4631C33.5255 20.1827 30.1779 18.6677 26.8537 20.1827C23.6287 21.6727 21.6283 25.5665 22.4914 28.8469C23.3779 32.2337 26.7021 33.7424 30.0263 32.2337C33.2747 30.7438 35.2751 26.8186 34.3886 23.4631Z" fill="white"/>
<path fill-rule="evenodd" clip-rule="evenodd" d="M32.1376 24.0885C32.1376 25.8289 30.7788 27.1999 29.0525 27.1999C27.3554 27.1999 25.9966 25.8289 25.9966 24.0885C25.9966 22.4546 27.3554 21.0774 29.0817 21.0774C30.7788 21.0774 32.1376 22.4484 32.1376 24.0885Z" fill="#D02B45"/>
<path fill-rule="evenodd" clip-rule="evenodd" d="M29.8336 21.1211C28.8014 21.1211 27.9615 21.9224 27.9615 22.9052C27.9615 23.8881 28.7955 24.6894 29.8336 24.6894C30.8659 24.6894 31.7057 23.8881 31.7057 22.9052C31.7057 21.9224 30.8659 21.1211 29.8336 21.1211Z" fill="white"/>
<path fill-rule="evenodd" clip-rule="evenodd" d="M19.1088 27.9143C23.6111 24.3647 25.7572 18.9997 24.1301 14.9743C23.4186 13.2152 22.1706 11.7628 20.6426 10.8488C19.5695 10.0851 18.2923 9.60302 16.951 9.44026C13.6617 8.82049 9.71349 9.45904 5.8294 11.2307C4.40057 11.8818 3.06505 12.633 1.86367 13.4531L0.335693 14.486L1.25131 16.1513L4.09731 21.316C4.09731 21.316 4.9721 22.9061 4.97794 22.8998L6.52341 22.0923L6.73919 21.9796L13.8134 38.9386L14.4957 40.5663L16.082 40.0217L19.9136 38.707L21.5932 38.1311L21.15 36.3031L19.1088 27.9143Z" fill="#D02B45"/>
<path fill-rule="evenodd" clip-rule="evenodd" d="M22.4202 15.7685C21.8545 14.3725 20.8806 13.2769 19.6092 12.5069C18.6878 11.8496 17.6205 11.524 16.6232 11.4051C13.7889 10.873 10.2606 11.3738 6.54561 13.0641C5.22175 13.665 3.98538 14.3537 2.84814 15.1299L5.69414 20.2947C6.42314 19.9128 7.21045 19.5059 7.63619 19.2617L15.5035 38.1114L19.3351 36.7967L16.9732 27.0432C21.5046 24.0571 23.7907 19.1553 22.4202 15.7685Z" fill="white"/>
<path fill-rule="evenodd" clip-rule="evenodd" d="M62.6682 20.7274L59.9738 18.1231L61.2977 16.6144L62.4874 15.2559L61.391 13.8098C59.2506 10.9802 55.8273 9.84705 52.2348 10.7798C47.2368 12.0694 44.4199 16.6895 45.5338 21.7541C45.9829 23.7949 47.1726 25.5415 48.8931 26.6746C50.9459 28.0331 53.5295 28.4025 56.1597 27.7201C58.9357 27.0002 60.9769 25.7919 62.7673 23.8074L64.202 22.2173L62.6682 20.7274Z" fill="#D02B45"/>
<path fill-rule="evenodd" clip-rule="evenodd" d="M58.526 19.494C57.8495 20.3516 57.0738 21.1342 55.6975 21.491C55.2368 21.61 54.6127 21.7226 54.2162 21.6475L60.0073 15.0304C58.3744 12.8706 55.6916 11.869 52.6532 12.6578C48.8741 13.6344 46.3197 17.0149 47.2645 21.322C48.0226 24.7839 51.5918 26.9061 55.7325 25.8356C58.2402 25.1846 59.984 24.1454 61.5469 22.4113L58.526 19.494Z" fill="white"/>
<path fill-rule="evenodd" clip-rule="evenodd" d="M49.4816 9.69013L56.5732 0.919502L60.4982 7.21107L51.5344 12.382L49.4816 9.69013Z" fill="#D02B45"/>
<path fill-rule="evenodd" clip-rule="evenodd" d="M56.2696 3.71124L58.3458 6.74121L52.4147 9.89638L52.0006 9.22653L56.2696 3.71124Z" fill="white"/>
<path fill-rule="evenodd" clip-rule="evenodd" d="M51.8736 19.5935C51.4479 18.7609 51.5295 17.6904 52.1652 16.9454C52.7776 16.2255 53.7107 16.0189 54.5096 16.3507L51.8736 19.5935ZM52.1652 16.9454C51.5353 17.6904 51.4479 18.7609 51.8736 19.5935L54.5096 16.3507C53.7107 16.0189 52.7717 16.2255 52.1652 16.9454ZM55.9735 15.8624C54.6205 14.5415 52.5326 14.6479 51.3021 16.1003C50.0715 17.5526 50.1707 19.7938 51.5237 21.1147C51.6345 21.2274 51.757 21.3213 51.8794 21.409L56.2126 16.1128C56.1309 16.0251 56.0551 15.9438 55.9735 15.8624ZM51.8736 19.5935C51.4479 18.7609 51.5295 17.6904 52.1652 16.9454C52.7776 16.2255 53.7107 16.0189 54.5096 16.3507L51.8736 19.5935Z" fill="#D02B45"/>
<path fill-rule="evenodd" clip-rule="evenodd" d="M19.4412 18.9929C19.103 16.9959 16.6827 15.8753 14.2566 17.2713L14.8631 19.5626L15.8196 22.9431L16.257 24.4832C18.0765 23.2499 19.9078 21.7599 19.4412 18.9929ZM17.0326 22.0479C16.7702 21.1214 16.2045 19.1244 16.2045 19.1244C16.2103 19.1369 16.0878 18.6924 15.9595 18.1978C16.4727 18.0977 16.9626 18.1478 17.3709 18.3606C17.5983 18.4796 17.989 18.7488 18.0707 19.2621C18.2632 20.4077 17.8957 21.2278 17.0326 22.0479Z" fill="#D02B45"/>
<path fill-rule="evenodd" clip-rule="evenodd" d="M20.4807 41.7868C20.4866 41.8059 20.4925 41.8186 20.4984 41.8377C20.4984 41.844 20.5043 41.8504 20.5043 41.8568C20.4984 41.8313 20.4866 41.8123 20.4807 41.7868Z" fill="#D02B45"/>
<path fill-rule="evenodd" clip-rule="evenodd" d="M96.7957 37.7677H98.5394V38.0432H97.8162V40.0778H97.5188V38.0432H96.7957V37.7677Z" fill="#D02B45"/>
<path fill-rule="evenodd" clip-rule="evenodd" d="M98.7977 40.0778V37.7677H99.2176L99.8358 39.7209L100.448 37.7677H100.862V40.0778H100.588V38.713C100.588 38.6629 100.588 38.5878 100.594 38.4814C100.594 38.375 100.594 38.256 100.594 38.1308L99.9816 40.0778H99.6958L99.0777 38.1308V38.1997C99.0777 38.256 99.0777 38.3437 99.0835 38.4563C99.0835 38.569 99.0893 38.6567 99.0893 38.713V40.0778H98.7977Z" fill="#D02B45"/>
</g>
<defs>
<filter id="filter0_i_5_99" x="0.335571" y="0.919403" width="107.344" height="45.7836" filterUnits="userSpaceOnUse" color-interpolation-filters="sRGB">
<feFlood flood-opacity="0" result="BackgroundImageFix"/>
<feBlend mode="normal" in="SourceGraphic" in2="BackgroundImageFix" result="shape"/>
<feColorMatrix in="SourceAlpha" type="matrix" values="0 0 0 0 0 0 0 0 0 0 0 0 0 0 0 0 0 0 127 0" result="hardAlpha"/>
<feOffset dx="4.84629" dy="4.84629"/>
<feGaussianBlur stdDeviation="4.84629"/>
<feComposite in2="hardAlpha" operator="arithmetic" k2="-1" k3="1"/>
<feColorMatrix type="matrix" values="0 0 0 0 0.229167 0 0 0 0 0.217708 0 0 0 0 0.219618 0 0 0 0.65 0"/>
<feBlend mode="normal" in2="shape" result="effect1_innerShadow_5_99"/>
</filter>
</defs>
</svg>
